<?xml version="1.0" encoding="UTF-8"?>
<!DOCTYPE svg PUBLIC "-//W3C//DTD SVG 1.1//EN" "http://www.w3.org/Graphics/SVG/1.1/DTD/svg11.dtd">
<svg xmlns="http://www.w3.org/2000/svg" version="1.1" width="2807px" height="823px" style="shape-rendering:geometricPrecision; text-rendering:geometricPrecision; image-rendering:optimizeQuality; fill-rule:evenodd; clip-rule:evenodd" xmlns:xlink="http://www.w3.org/1999/xlink">
<g><path style="opacity:0.969" fill="#000000" d="M 158.5,216.5 C 182.167,216.5 205.833,216.5 229.5,216.5C 229.5,225.5 229.5,234.5 229.5,243.5C 205.833,243.5 182.167,243.5 158.5,243.5C 158.5,234.5 158.5,225.5 158.5,216.5 Z"/></g>
<g><path style="opacity:0.986" fill="#000000" d="M 1023.5,217.5 C 1045.83,217.5 1068.17,217.5 1090.5,217.5C 1090.5,242.833 1090.5,268.167 1090.5,293.5C 1161.83,293.5 1233.17,293.5 1304.5,293.5C 1304.5,313.167 1304.5,332.833 1304.5,352.5C 1233.17,352.5 1161.83,352.5 1090.5,352.5C 1090.33,397.168 1090.5,441.835 1091,486.5C 1100.69,531.954 1128.86,553.121 1175.5,550C 1206.69,544.811 1226.52,526.978 1235,496.5C 1236.81,489.954 1237.65,483.287 1237.5,476.5C 1259.83,476.5 1282.17,476.5 1304.5,476.5C 1304.51,523.308 1285.85,560.475 1248.5,588C 1207.3,611.735 1163.64,617.402 1117.5,605C 1062.85,588.022 1031.69,551.189 1024,494.5C 1023.5,402.167 1023.33,309.834 1023.5,217.5 Z"/></g>
<g><path style="opacity:0.931" fill="#000000" d="M 1991.5,283.5 C 2003.52,281.757 2014.52,284.257 2024.5,291C 2027.4,293.397 2029.73,296.23 2031.5,299.5C 2027.5,302.5 2023.5,305.5 2019.5,308.5C 2012.24,298.248 2002.58,295.081 1990.5,299C 1985.14,302.378 1984.47,306.378 1988.5,311C 1998.12,313.791 2007.79,316.458 2017.5,319C 2030.71,324.256 2035.21,333.756 2031,347.5C 2027.68,354.754 2022.18,359.588 2014.5,362C 1999.56,366.341 1985.56,364.341 1972.5,356C 1969.6,353.603 1967.27,350.77 1965.5,347.5C 1969.5,344.338 1973.67,341.338 1978,338.5C 1987.61,349.707 1999.11,352.54 2012.5,347C 2016.76,342.245 2016.43,337.912 2011.5,334C 2002.2,331.54 1992.87,329.207 1983.5,327C 1972.92,322.682 1968.42,314.848 1970,303.5C 1972.88,292.156 1980.05,285.489 1991.5,283.5 Z"/></g>
<g><path style="opacity:0.938" fill="#000000" d="M 2356.5,283.5 C 2379.95,281.463 2394.45,291.796 2400,314.5C 2403.11,331.18 2398.61,345.347 2386.5,357C 2374.21,364.992 2361.21,366.325 2347.5,361C 2333.64,352.464 2326.64,339.964 2326.5,323.5C 2327.17,302.864 2337.17,289.531 2356.5,283.5 Z M 2358.5,297.5 C 2376.36,297.36 2385.36,306.36 2385.5,324.5C 2385.06,342.355 2376.06,350.521 2358.5,349C 2349.68,345.504 2344.51,339.004 2343,329.5C 2340.51,314.819 2345.68,304.153 2358.5,297.5 Z"/></g>
<g><path style="opacity:0.997" fill="#000000" d="M 158.5,285.5 C 182.167,285.5 205.833,285.5 229.5,285.5C 229.5,391.167 229.5,496.833 229.5,602.5C 205.833,602.5 182.167,602.5 158.5,602.5C 158.5,496.833 158.5,391.167 158.5,285.5 Z"/></g>
<g><path style="opacity:0.984" fill="#000000" d="M 809.5,285.5 C 850.624,281.823 888.957,290.323 924.5,311C 946.17,324.836 963.17,343.002 975.5,365.5C 954.953,373.737 934.453,382.071 914,390.5C 889.887,355.997 856.72,341.164 814.5,346C 769.133,354.033 741.3,380.533 731,425.5C 724.566,460.43 732.233,491.763 754,519.5C 780.323,546.382 812.156,556.549 849.5,550C 889.785,540.88 915.118,516.38 925.5,476.5C 948.167,476.5 970.833,476.5 993.5,476.5C 985.01,532.812 955.01,572.978 903.5,597C 862.066,613.223 819.733,615.89 776.5,605C 710.085,584.589 671.585,540.089 661,471.5C 654.182,417.293 669.349,370.46 706.5,331C 735.801,304.508 770.135,289.341 809.5,285.5 Z"/></g>
<g><path style="opacity:0.988" fill="#000000" d="M 1498.5,285.5 C 1543.37,281.466 1584.37,291.966 1621.5,317C 1657.67,344.899 1678.17,381.732 1683,427.5C 1684.24,444.143 1684.74,460.81 1684.5,477.5C 1596.83,477.333 1509.17,477.5 1421.5,478C 1437.4,519.525 1467.73,541.525 1512.5,544C 1556.5,544.5 1600.5,544.667 1644.5,544.5C 1644.76,563.853 1644.42,583.187 1643.5,602.5C 1594.5,602.667 1545.5,602.5 1496.5,602C 1446.38,598.125 1405.88,576.625 1375,537.5C 1352.33,503.517 1343.67,466.184 1349,425.5C 1358.85,359.958 1395.02,316.124 1457.5,294C 1471.08,290.052 1484.75,287.219 1498.5,285.5 Z M 1502.5,345.5 C 1541.99,341.178 1573.83,354.512 1598,385.5C 1605.02,395.533 1609.85,406.533 1612.5,418.5C 1548.5,418.833 1484.5,418.5 1420.5,417.5C 1433.22,376.772 1460.56,352.772 1502.5,345.5 Z"/></g>
<g><path style="opacity:0.941" fill="#000000" d="M 1864.5,285.5 C 1869.5,285.5 1874.5,285.5 1879.5,285.5C 1879.5,311.167 1879.5,336.833 1879.5,362.5C 1874.5,362.5 1869.5,362.5 1864.5,362.5C 1864.5,336.833 1864.5,311.167 1864.5,285.5 Z"/></g>
<g><path style="opacity:0.932" fill="#000000" d="M 1895.5,285.5 C 1900.54,285.173 1905.54,285.506 1910.5,286.5C 1920.8,303.3 1931.3,319.967 1942,336.5C 1941.7,319.515 1941.2,302.515 1940.5,285.5C 1945.5,285.5 1950.5,285.5 1955.5,285.5C 1955.5,311.167 1955.5,336.833 1955.5,362.5C 1950.79,362.827 1946.12,362.493 1941.5,361.5C 1931,344.5 1920.5,327.5 1910,310.5C 1910.41,327.803 1910.58,345.137 1910.5,362.5C 1905.5,362.5 1900.5,362.5 1895.5,362.5C 1895.5,336.833 1895.5,311.167 1895.5,285.5 Z"/></g>
<g><path style="opacity:0.917" fill="#000000" d="M 2037.5,285.5 C 2056.5,285.5 2075.5,285.5 2094.5,285.5C 2094.5,290.167 2094.5,294.833 2094.5,299.5C 2087.5,299.5 2080.5,299.5 2073.5,299.5C 2073.5,320.5 2073.5,341.5 2073.5,362.5C 2068.17,362.5 2062.83,362.5 2057.5,362.5C 2057.5,341.5 2057.5,320.5 2057.5,299.5C 2050.83,299.5 2044.17,299.5 2037.5,299.5C 2037.5,294.833 2037.5,290.167 2037.5,285.5 Z"/></g>
<g><path style="opacity:0.941" fill="#000000" d="M 2104.5,285.5 C 2109.5,285.5 2114.5,285.5 2119.5,285.5C 2119.5,311.167 2119.5,336.833 2119.5,362.5C 2114.5,362.5 2109.5,362.5 2104.5,362.5C 2104.5,336.833 2104.5,311.167 2104.5,285.5 Z"/></g>
<g><path style="opacity:0.919" fill="#000000" d="M 2129.5,285.5 C 2148.5,285.5 2167.5,285.5 2186.5,285.5C 2186.5,290.167 2186.5,294.833 2186.5,299.5C 2179.5,299.5 2172.5,299.5 2165.5,299.5C 2165.5,320.5 2165.5,341.5 2165.5,362.5C 2160.17,362.5 2154.83,362.5 2149.5,362.5C 2149.5,341.5 2149.5,320.5 2149.5,299.5C 2142.83,299.5 2136.17,299.5 2129.5,299.5C 2129.5,294.833 2129.5,290.167 2129.5,285.5 Z"/></g>
<g><path style="opacity:0.92" fill="#000000" d="M 2195.5,285.5 C 2200.83,285.5 2206.17,285.5 2211.5,285.5C 2211.33,303.836 2211.5,322.17 2212,340.5C 2214.93,346.389 2219.76,349.389 2226.5,349.5C 2233.65,349.682 2238.82,346.682 2242,340.5C 2242.5,322.17 2242.67,303.836 2242.5,285.5C 2247.83,285.5 2253.17,285.5 2258.5,285.5C 2258.93,305.874 2258.43,326.207 2257,346.5C 2250.83,359.011 2240.66,365.011 2226.5,364.5C 2214.16,364.582 2204.66,359.582 2198,349.5C 2196.93,345.916 2196.26,342.25 2196,338.5C 2195.5,320.836 2195.33,303.17 2195.5,285.5 Z"/></g>
<g><path style="opacity:0.948" fill="#000000" d="M 2268.5,285.5 C 2287.17,285.5 2305.83,285.5 2324.5,285.5C 2324.5,290.167 2324.5,294.833 2324.5,299.5C 2317.5,299.5 2310.5,299.5 2303.5,299.5C 2303.5,320.5 2303.5,341.5 2303.5,362.5C 2298.5,362.5 2293.5,362.5 2288.5,362.5C 2288.5,341.5 2288.5,320.5 2288.5,299.5C 2281.83,299.5 2275.17,299.5 2268.5,299.5C 2268.5,294.833 2268.5,290.167 2268.5,285.5 Z"/></g>
<g><path style="opacity:0.987" fill="#000000" d="M 384.5,293.5 C 456.167,293.5 527.833,293.5 599.5,293.5C 599.5,313.167 599.5,332.833 599.5,352.5C 526.809,352.025 454.142,352.525 381.5,354C 367.279,355.672 357.112,362.839 351,375.5C 347.657,397.944 357.157,411.777 379.5,417C 430.151,418.035 480.818,419.035 531.5,420C 556.307,422.043 578.64,430.376 598.5,445C 624.407,468.766 633.574,497.933 626,532.5C 617.957,561.546 599.79,581.379 571.5,592C 557.615,597.244 543.281,600.577 528.5,602C 451.501,602.5 374.501,602.667 297.5,602.5C 297.5,583.167 297.5,563.833 297.5,544.5C 369.501,544.667 441.501,544.5 513.5,544C 525.169,543.751 535.836,540.418 545.5,534C 555.723,524.266 558.223,512.766 553,499.5C 544.937,486.374 533.104,479.207 517.5,478C 469.5,477.667 421.5,477.333 373.5,477C 348.883,475.684 326.549,468.017 306.5,454C 280.164,430.662 270.331,401.495 277,366.5C 283.19,337.305 300.024,316.805 327.5,305C 345.975,297.872 364.975,294.038 384.5,293.5 Z"/></g>
<g><path style="opacity:0.857" fill="#000000" d="M 2435.5,386.5 C 2440.87,386.172 2446.21,386.505 2451.5,387.5C 2447.72,391.573 2444.05,395.74 2440.5,400C 2436.79,400.825 2433.12,400.659 2429.5,399.5C 2431.24,395.021 2433.24,390.687 2435.5,386.5 Z"/></g>
<g><path style="opacity:0.929" fill="#000000" d="M 2271.5,405.5 C 2283.02,403.888 2293.69,406.054 2303.5,412C 2306.55,414.714 2309.22,417.714 2311.5,421C 2307.71,424.399 2303.71,427.565 2299.5,430.5C 2292.3,419.903 2282.63,416.737 2270.5,421C 2263.5,425.974 2263.84,430.307 2271.5,434C 2282.07,436.246 2292.41,439.246 2302.5,443C 2312.76,450.701 2315.26,460.534 2310,472.5C 2302.33,482.24 2292.16,486.907 2279.5,486.5C 2265.1,486.634 2253.77,480.967 2245.5,469.5C 2249.56,466.11 2253.89,463.11 2258.5,460.5C 2266.21,470.24 2276.21,473.74 2288.5,471C 2295.69,468.33 2297.36,463.664 2293.5,457C 2282.93,453.691 2272.27,450.691 2261.5,448C 2254.11,444.094 2250.11,437.927 2249.5,429.5C 2250.97,416.038 2258.3,408.038 2271.5,405.5 Z"/></g>
<g><path style="opacity:0.938" fill="#000000" d="M 2605.5,405.5 C 2633.65,403.979 2648.65,417.313 2650.5,445.5C 2647.61,477.243 2630.61,490.077 2599.5,484C 2587.58,478.073 2580.08,468.573 2577,455.5C 2572.89,430.677 2582.39,414.01 2605.5,405.5 Z M 2607.5,419.5 C 2622.17,418.329 2631,424.995 2634,439.5C 2636.16,450.016 2633.66,459.183 2626.5,467C 2610.61,475.64 2599.44,471.474 2593,454.5C 2589.9,442.317 2592.73,431.817 2601.5,423C 2603.43,421.541 2605.43,420.375 2607.5,419.5 Z"/></g>
<g><path style="opacity:0.96" fill="#000000" d="M 1864.5,407.5 C 1869.5,407.5 1874.5,407.5 1879.5,407.5C 1879.33,425.503 1879.5,443.503 1880,461.5C 1882.6,468.308 1887.6,471.641 1895,471.5C 1901.48,471.43 1906.48,468.763 1910,463.5C 1911.45,444.888 1911.95,426.222 1911.5,407.5C 1916.5,407.5 1921.5,407.5 1926.5,407.5C 1926.95,428.22 1926.45,448.887 1925,469.5C 1918.56,481.063 1908.56,486.73 1895,486.5C 1882.06,486.866 1872.39,481.532 1866,470.5C 1864.53,449.567 1864.03,428.567 1864.5,407.5 Z"/></g>
<g><path style="opacity:0.932" fill="#000000" d="M 1942.5,407.5 C 1947.54,407.173 1952.54,407.506 1957.5,408.5C 1967.8,425.3 1978.3,441.967 1989,458.5C 1988.75,441.511 1988.25,424.511 1987.5,407.5C 1992.5,407.5 1997.5,407.5 2002.5,407.5C 2002.5,433.167 2002.5,458.833 2002.5,484.5C 1998.15,484.666 1993.82,484.499 1989.5,484C 1978.29,467.086 1967.46,449.92 1957,432.5C 1957.44,449.79 1957.61,467.123 1957.5,484.5C 1952.5,484.5 1947.5,484.5 1942.5,484.5C 1942.5,458.833 1942.5,433.167 1942.5,407.5 Z"/></g>
<g><path style="opacity:0.941" fill="#000000" d="M 2018.5,407.5 C 2023.5,407.5 2028.5,407.5 2033.5,407.5C 2033.5,433.167 2033.5,458.833 2033.5,484.5C 2028.5,484.5 2023.5,484.5 2018.5,484.5C 2018.5,458.833 2018.5,433.167 2018.5,407.5 Z"/></g>
<g><path style="opacity:0.936" fill="#000000" d="M 2042.5,407.5 C 2047.87,407.172 2053.21,407.505 2058.5,408.5C 2064.15,427.449 2069.65,446.449 2075,465.5C 2080.48,446.233 2085.65,426.9 2090.5,407.5C 2095.83,407.5 2101.17,407.5 2106.5,407.5C 2099.34,433.129 2092.34,458.796 2085.5,484.5C 2078.5,484.5 2071.5,484.5 2064.5,484.5C 2057.32,458.789 2049.99,433.123 2042.5,407.5 Z"/></g>
<g><path style="opacity:0.949" fill="#000000" d="M 2115.5,407.5 C 2133.83,407.5 2152.17,407.5 2170.5,407.5C 2170.5,411.833 2170.5,416.167 2170.5,420.5C 2157.17,420.5 2143.83,420.5 2130.5,420.5C 2130.5,426.167 2130.5,431.833 2130.5,437.5C 2142.5,437.5 2154.5,437.5 2166.5,437.5C 2166.5,442.167 2166.5,446.833 2166.5,451.5C 2154.5,451.5 2142.5,451.5 2130.5,451.5C 2130.5,457.833 2130.5,464.167 2130.5,470.5C 2144.5,470.5 2158.5,470.5 2172.5,470.5C 2172.5,475.167 2172.5,479.833 2172.5,484.5C 2153.5,484.5 2134.5,484.5 2115.5,484.5C 2115.5,458.833 2115.5,433.167 2115.5,407.5 Z"/></g>
<g><path style="opacity:0.946" fill="#000000" d="M 2182.5,407.5 C 2195.5,407.333 2208.5,407.5 2221.5,408C 2236.21,412.906 2242.04,423.073 2239,438.5C 2236.79,445.544 2232.29,450.544 2225.5,453.5C 2231.13,463.772 2236.47,474.106 2241.5,484.5C 2235.82,484.666 2230.16,484.499 2224.5,484C 2219.28,475.07 2214.45,465.904 2210,456.5C 2205.93,455.536 2201.77,455.203 2197.5,455.5C 2197.5,465.167 2197.5,474.833 2197.5,484.5C 2192.5,484.5 2187.5,484.5 2182.5,484.5C 2182.5,458.833 2182.5,433.167 2182.5,407.5 Z M 2197.5,420.5 C 2204.59,420.116 2211.59,420.616 2218.5,422C 2226.08,427.853 2226.41,434.186 2219.5,441C 2212.31,443.028 2204.98,443.861 2197.5,443.5C 2197.5,435.833 2197.5,428.167 2197.5,420.5 Z"/></g>
<g><path style="opacity:0.925" fill="#000000" d="M 2323.5,407.5 C 2328.5,407.5 2333.5,407.5 2338.5,407.5C 2338.5,433.167 2338.5,458.833 2338.5,484.5C 2333.5,484.5 2328.5,484.5 2323.5,484.5C 2323.5,458.833 2323.5,433.167 2323.5,407.5 Z"/></g>
<g><path style="opacity:0.969" fill="#000000" d="M 2348.5,407.5 C 2367.5,407.5 2386.5,407.5 2405.5,407.5C 2405.5,411.833 2405.5,416.167 2405.5,420.5C 2398.5,420.5 2391.5,420.5 2384.5,420.5C 2384.5,441.833 2384.5,463.167 2384.5,484.5C 2379.5,484.5 2374.5,484.5 2369.5,484.5C 2369.5,463.167 2369.5,441.833 2369.5,420.5C 2362.5,420.5 2355.5,420.5 2348.5,420.5C 2348.5,416.167 2348.5,411.833 2348.5,407.5 Z"/></g>
<g><path style="opacity:0.931" fill="#000000" d="M 2426.5,407.5 C 2432.96,406.903 2439.13,407.57 2445,409.5C 2453.37,434.401 2461.87,459.234 2470.5,484C 2464.84,484.499 2459.18,484.666 2453.5,484.5C 2452.78,479.671 2451.45,475.004 2449.5,470.5C 2440.19,469.502 2430.86,469.168 2421.5,469.5C 2420.48,474.243 2419.15,478.909 2417.5,483.5C 2412.21,484.495 2406.87,484.828 2401.5,484.5C 2409.63,458.789 2417.96,433.122 2426.5,407.5 Z M 2435.5,424.5 C 2438.89,434.552 2442.23,444.719 2445.5,455C 2439.18,455.5 2432.84,455.666 2426.5,455.5C 2429.3,445.093 2432.3,434.76 2435.5,424.5 Z"/></g>
<g><path style="opacity:0.942" fill="#000000" d="M 2478.5,407.5 C 2491.84,407.333 2505.17,407.5 2518.5,408C 2533.03,413.515 2538.53,424.015 2535,439.5C 2532.5,446 2528,450.5 2521.5,453C 2527.52,463.206 2532.85,473.706 2537.5,484.5C 2531.79,484.829 2526.13,484.495 2520.5,483.5C 2515.67,474.5 2510.83,465.5 2506,456.5C 2501.93,455.536 2497.77,455.203 2493.5,455.5C 2493.5,465.167 2493.5,474.833 2493.5,484.5C 2488.5,484.5 2483.5,484.5 2478.5,484.5C 2478.5,458.833 2478.5,433.167 2478.5,407.5 Z M 2493.5,420.5 C 2500.59,420.116 2507.59,420.616 2514.5,422C 2520.39,425.806 2521.89,430.972 2519,437.5C 2517.46,439.378 2515.62,440.878 2513.5,442C 2506.88,443.137 2500.21,443.637 2493.5,443.5C 2493.5,435.833 2493.5,428.167 2493.5,420.5 Z"/></g>
<g><path style="opacity:0.941" fill="#000000" d="M 2548.5,407.5 C 2553.5,407.5 2558.5,407.5 2563.5,407.5C 2563.5,433.167 2563.5,458.833 2563.5,484.5C 2558.5,484.5 2553.5,484.5 2548.5,484.5C 2548.5,458.833 2548.5,433.167 2548.5,407.5 Z"/></g>
<g><path style="opacity:0.933" fill="#000000" d="M 2145.5,527.5 C 2162.19,524.554 2175.52,529.721 2185.5,543C 2181.71,546.399 2177.71,549.565 2173.5,552.5C 2166.17,541.778 2156.5,538.612 2144.5,543C 2139.66,546.694 2139.33,550.694 2143.5,555C 2153.11,557.82 2162.78,560.486 2172.5,563C 2186,569.831 2189.84,580.331 2184,594.5C 2180.21,600.148 2175.05,603.982 2168.5,606C 2152.46,610.445 2137.8,607.779 2124.5,598C 2122.83,595.667 2121.17,593.333 2119.5,591C 2123.7,587.97 2128.03,585.137 2132.5,582.5C 2140.24,592.111 2150.24,595.611 2162.5,593C 2170.01,590.125 2171.68,585.458 2167.5,579C 2156.96,575.624 2146.3,572.624 2135.5,570C 2124.13,562.465 2121.29,552.298 2127,539.5C 2131.65,533.095 2137.82,529.095 2145.5,527.5 Z"/></g>
<g><path style="opacity:0.937" fill="#000000" d="M 2297.5,527.5 C 2325.64,525.966 2340.64,539.3 2342.5,567.5C 2341.65,591.68 2329.31,605.347 2305.5,608.5C 2287.37,607.203 2275.53,597.87 2270,580.5C 2265.32,562.204 2269.82,546.704 2283.5,534C 2287.88,530.975 2292.54,528.808 2297.5,527.5 Z M 2299.5,541.5 C 2313.34,540.169 2322.18,546.169 2326,559.5C 2328.89,571.378 2326.06,581.545 2317.5,590C 2301.22,597.276 2290.39,592.442 2285,575.5C 2281.45,560.291 2286.29,548.957 2299.5,541.5 Z"/></g>
<g><path style="opacity:0.948" fill="#000000" d="M 1863.5,529.5 C 1876.5,529.333 1889.5,529.5 1902.5,530C 1920.53,536.064 1929.2,548.73 1928.5,568C 1929.04,580.722 1924.71,591.388 1915.5,600C 1911.72,602.225 1907.72,603.891 1903.5,605C 1890.2,606.332 1876.87,606.832 1863.5,606.5C 1863.5,580.833 1863.5,555.167 1863.5,529.5 Z M 1878.5,542.5 C 1887.62,541.6 1896.28,543.1 1904.5,547C 1910.21,552.971 1912.88,560.137 1912.5,568.5C 1913.61,582.539 1907.28,590.372 1893.5,592C 1888.51,592.499 1883.51,592.666 1878.5,592.5C 1878.5,575.833 1878.5,559.167 1878.5,542.5 Z"/></g>
<g><path style="opacity:0.96" fill="#000000" d="M 1940.5,529.5 C 1958.83,529.5 1977.17,529.5 1995.5,529.5C 1995.5,533.833 1995.5,538.167 1995.5,542.5C 1982.17,542.5 1968.83,542.5 1955.5,542.5C 1955.5,548.167 1955.5,553.833 1955.5,559.5C 1967.5,559.5 1979.5,559.5 1991.5,559.5C 1991.5,563.833 1991.5,568.167 1991.5,572.5C 1979.5,572.5 1967.5,572.5 1955.5,572.5C 1955.5,579.167 1955.5,585.833 1955.5,592.5C 1969.5,592.5 1983.5,592.5 1997.5,592.5C 1997.5,597.167 1997.5,601.833 1997.5,606.5C 1978.5,606.5 1959.5,606.5 1940.5,606.5C 1940.5,580.833 1940.5,555.167 1940.5,529.5 Z"/></g>
<g><path style="opacity:0.912" fill="#000000" d="M 2038.5,529.5 C 2043.83,529.5 2049.17,529.5 2054.5,529.5C 2054.5,550.5 2054.5,571.5 2054.5,592.5C 2064.5,592.5 2074.5,592.5 2084.5,592.5C 2084.5,597.167 2084.5,601.833 2084.5,606.5C 2069.17,606.5 2053.83,606.5 2038.5,606.5C 2038.5,580.833 2038.5,555.167 2038.5,529.5 Z"/></g>
<g><path style="opacity:0.941" fill="#000000" d="M 2094.5,529.5 C 2099.5,529.5 2104.5,529.5 2109.5,529.5C 2109.5,555.167 2109.5,580.833 2109.5,606.5C 2104.5,606.5 2099.5,606.5 2094.5,606.5C 2094.5,580.833 2094.5,555.167 2094.5,529.5 Z"/></g>
<g><path style="opacity:0.938" fill="#000000" d="M 2197.5,529.5 C 2212.17,529.333 2226.84,529.5 2241.5,530C 2255.09,535.422 2258.92,544.922 2253,558.5C 2251.06,561.106 2248.56,562.939 2245.5,564C 2256.68,568.85 2261.18,577.35 2259,589.5C 2255.53,600.284 2248.03,605.784 2236.5,606C 2223.5,606.5 2210.5,606.667 2197.5,606.5C 2197.5,580.833 2197.5,555.167 2197.5,529.5 Z M 2212.5,541.5 C 2219.91,541.152 2227.24,541.652 2234.5,543C 2242.86,549.295 2242.19,554.629 2232.5,559C 2225.84,559.5 2219.17,559.666 2212.5,559.5C 2212.5,553.5 2212.5,547.5 2212.5,541.5 Z M 2212.5,571.5 C 2220.92,571.094 2229.25,571.594 2237.5,573C 2243.54,576.748 2245.04,581.915 2242,588.5C 2240.68,590.487 2238.85,591.654 2236.5,592C 2228.51,592.5 2220.51,592.666 2212.5,592.5C 2212.5,585.5 2212.5,578.5 2212.5,571.5 Z"/></g>
<g><path style="opacity:0.928" fill="#000000" d="M 2372.5,529.5 C 2378.5,529.5 2384.5,529.5 2390.5,529.5C 2399.03,555.094 2407.36,580.76 2415.5,606.5C 2410.13,606.828 2404.79,606.495 2399.5,605.5C 2397.85,600.909 2396.52,596.243 2395.5,591.5C 2386.14,591.168 2376.81,591.502 2367.5,592.5C 2365.55,597.004 2364.22,601.671 2363.5,606.5C 2357.79,606.829 2352.13,606.495 2346.5,605.5C 2355.37,580.213 2364.04,554.88 2372.5,529.5 Z M 2380.5,546.5 C 2384.89,556.344 2388.22,566.677 2390.5,577.5C 2384.16,577.666 2377.82,577.5 2371.5,577C 2375.21,567.044 2378.21,556.877 2380.5,546.5 Z"/></g>
</svg>
